<?xml version="1.0" encoding="utf-8"?>
<!-- Generator: Adobe Illustrator 25.4.1, SVG Export Plug-In . SVG Version: 6.00 Build 0)  -->
<svg version="1.1" id="Layer_1" xmlns="http://www.w3.org/2000/svg" xmlns:xlink="http://www.w3.org/1999/xlink" x="0px" y="0px"
	 viewBox="0 0 131.7 75.2" style="enable-background:new 0 0 131.7 75.2;" xml:space="preserve">
<style type="text/css">
	.st0{fill-rule:evenodd;clip-rule:evenodd;fill:#C99D66;}
	.st1{fill-rule:evenodd;clip-rule:evenodd;fill:#FFFFFF;}
	.st2{fill:#FFFFFF;}
	.st3{fill:#040505;}
	.st4{fill:none;stroke:#FFFFFF;stroke-width:0.149;stroke-miterlimit:10;}
</style>
<path class="st0" d="M68.4,10.3c0.9,1.1,1.8,2.1,2.6,3.3c3.8,5.4,3.5,10.2-2,13.7c-6.2,3.9-13.1,6.7-19.7,9.9
	c-5.7,2.8-11.4,5.4-16.9,8.5c-3.2,1.8-5.3,4.8-5,9.1c-2.1-4.4-1.8-8.8,1.6-11.6c3.6-3,7.7-5.5,11.8-7.6c6.2-3.1,12.7-5.7,19.1-8.6
	c0.8-0.3,1.5-0.8,2.2-1.3C68.5,21.6,69.9,18.1,68.4,10.3"/>
<path class="st1" d="M60.6,24.4c-2.1,1.1-4,2.1-6.1,3.2c-2.5-5.3-4.9-10.3-7.6-15.9c-1.3,2.8-2.4,4.9-3.4,7.1
	c-2,4.3-3.8,8.6-5.9,12.9c-0.5,1.1-1.3,3.9-1.3,3.9s-3.2,0.7-4.3,1.8c1.2-2.7,2.5-5.4,3.7-8.2C39.5,21,43.2,12.9,47,4.9
	C47.4,4,48.5,3,49.3,3c0.8,0,1.9,1,2.3,1.9C54.6,11.2,57.5,17.7,60.6,24.4"/>
<path class="st1" d="M78.8,49c-2.2,2-20,2.2-23,0.6c1.9-0.5,3.2-0.9,4.5-1.1c2.5-0.4,3.2-1.5,2.1-3.9c-1.3-2.7-2.4-5.5-3.7-8.6
	c2-1,3.9-1.9,6-2.9c1.3,2.8,2.7,5.3,3.7,7.9C70.2,45.4,72.6,49,78.8,49"/>
<path class="st2" d="M9,58c2.8,0,4.2-3.4,4.2-10.1V12.6c0-1.5-0.3-2.5-0.9-3.1C11.6,8.8,10.5,8.4,9,8.1C7.6,7.8,6.8,7.4,6.8,6.8
	c0-0.5,0.6-0.7,1.9-0.7c1.2,0,2.5,0,3.9,0.1c1.4,0.1,2.6,0.1,3.6,0.1c0.7,0,1.5,0,2.6-0.1c1-0.1,2.2-0.1,3.4-0.1
	c1.2,0,1.9,0.2,1.9,0.7c0,0.6-0.7,1-2.1,1.3c-1.5,0.3-2.5,0.7-3,1.3c-0.4,0.6-0.7,1.7-0.7,3.2v26.2c0,3.2-0.1,5.8-0.2,7.9
	c-0.2,2.1-0.4,3.8-0.9,5.1c-0.4,1.3-0.8,2.2-1,2.6c-0.2,0.4-0.7,1.1-1.3,2c-2,2.8-4.6,4.2-7.9,4.2c-2,0-3.6-0.3-4.8-0.8
	c-1.2-0.5-1.8-1.2-1.8-1.9c0-0.9,0.2-1.7,0.7-2.4s1-1.1,1.6-1.1c1.4,0,2.5,0.6,3.2,1.7C6.8,57.4,7.8,58,9,58"/>
<path class="st2" d="M122,6.8c1,0,2.2,0,3.5-0.1c1.4-0.1,2.8-0.1,4.2-0.1c1.3,0,2,0.2,2,0.7c0,0.6-0.7,1.1-2.2,1.4
	c-1.7,0.3-2.8,0.7-3.3,1.2c-0.6,0.5-0.9,1.3-0.9,2.4c-0.1,2.2-0.1,14.8-0.1,37.9c0,1.1-0.5,1.7-1.4,1.7c-0.5,0-1.3-0.4-2.4-1.1
	c-1.1-0.7-2.1-1.8-3.1-3.1C117,45.9,109,36.1,94.1,18c-0.6-0.7-1.1-1.1-1.4-1.1c-0.4,0-0.6,0.5-0.6,1.4c-0.2,11.2-0.3,19.6-0.3,25.4
	c0,3.1,1.4,4.9,4.3,5.4c1.5,0.3,2.2,0.7,2.2,1.2c0,0.5-0.7,0.7-2,0.7c-1.3,0-2.5-0.1-3.6-0.2c-1.1-0.1-2-0.2-2.7-0.2
	c-0.7,0-1.6,0.1-2.6,0.2c-1,0.1-2.2,0.2-3.5,0.2c-1.3,0-2-0.2-2-0.7c0-0.5,0.7-0.9,2.2-1.3c2.3-0.6,3.6-2.5,3.9-5.5
	c0.8-7.6,1.2-16.6,1.2-27c0-2.2-0.6-3.9-1.7-4.9c-1.1-1.1-2.8-2-5-2.7c-1.4-0.5-2.1-1-2.1-1.6c0-0.6,0.5-0.9,1.6-0.9
	c1.4,0,3,0.1,4.9,0.2c1.9,0.1,3.7,0.1,5.5,0.1c0.5,0,1,0.4,1.6,1.2c0.6,0.8,4.8,6.2,12.7,16.1c7.9,9.9,12.2,15.4,13.1,16.4
	c0.8,0.9,1.3,1.4,1.7,1.4c0.4,0,0.6-0.5,0.7-1.4c0.1-2.9,0.1-10.1,0.1-21.6v-5.9c0-0.8-0.5-1.6-1.4-2.4c-0.9-0.8-1.7-1.2-2.5-1.4
	c-1.5-0.3-2.2-0.7-2.2-1.4c0-0.5,0.7-0.7,2-0.7H122z"/>
<path class="st2" d="M56,70.6L56,70.6c0.3-1,1.3-4.1,1.7-5.5c0.1-0.4,0.1-0.5,0.1-0.7c0-0.2-0.1-0.3-0.6-0.3c-0.1,0-0.1,0-0.1-0.1
	c0-0.1,0.1-0.1,0.2-0.1c0.5,0,1,0,1.1,0c0.1,0,0.5,0,0.9,0c0.1,0,0.1,0,0.1,0.1c0,0.1,0,0.1-0.1,0.1c0,0-0.2,0-0.4,0.1
	c-0.3,0.1-0.5,0.6-0.7,1.2c-0.5,1.4-1.6,4.8-2,6c-0.3,0.8-0.3,0.9-0.5,0.9c-0.1,0-0.2-0.1-0.3-0.6l-2.1-6h0c-0.4,1-1.9,5-2.2,5.9
	c-0.2,0.5-0.2,0.6-0.4,0.6c-0.1,0-0.2-0.1-0.4-0.8L48.5,65c-0.2-0.6-0.3-0.7-0.6-0.8c-0.1-0.1-0.4-0.1-0.5-0.1c-0.1,0-0.1,0-0.1-0.1
	c0-0.1,0.1-0.1,0.2-0.1c0.6,0,1.1,0,1.3,0c0.1,0,0.6,0,1.1,0c0.1,0,0.2,0,0.2,0.1c0,0.1-0.1,0.1-0.1,0.1c-0.1,0-0.3,0-0.4,0.1
	c-0.1,0-0.1,0.1-0.1,0.3c0,0.1,0.1,0.5,0.2,1c0.2,0.7,1.3,4.6,1.4,5.2h0l2.3-6.1c0.2-0.4,0.2-0.5,0.3-0.5c0.1,0,0.1,0.1,0.3,0.5
	L56,70.6z"/>
<path class="st2" d="M62.1,69c0,1,0,1.9,0.1,2.3c0,0.3,0.1,0.5,0.4,0.6c0.2,0,0.4,0,0.5,0c0.1,0,0.1,0,0.1,0.1
	c0,0.1-0.1,0.1-0.2,0.1c-0.6,0-1.3,0-1.3,0c-0.1,0-0.7,0-1,0c-0.1,0-0.2,0-0.2-0.1c0,0,0-0.1,0.1-0.1c0.1,0,0.2,0,0.3,0
	c0.2,0,0.3-0.3,0.3-0.6c0.1-0.5,0.1-1.3,0.1-2.3v-1.9c0-1.7,0-2,0-2.3c0-0.4-0.1-0.5-0.4-0.6c-0.1,0-0.3,0-0.3,0c0,0-0.1,0-0.1-0.1
	c0-0.1,0.1-0.1,0.2-0.1c0.4,0,1,0,1.1,0c0.1,0,0.7,0,1,0c0.1,0,0.2,0,0.2,0.1c0,0,0,0.1-0.1,0.1c-0.1,0-0.1,0-0.3,0
	c-0.3,0.1-0.4,0.2-0.4,0.6c0,0.3,0,0.6,0,2.3V69z"/>
<path class="st2" d="M66.8,69c0,1.6,0,2.3,0.2,2.5c0.2,0.2,0.5,0.2,1.3,0.2c0.6,0,1,0,1.3-0.3c0.1-0.2,0.2-0.4,0.3-0.6
	c0-0.1,0-0.1,0.1-0.1c0.1,0,0.1,0,0.1,0.2c0,0.1-0.1,0.8-0.2,1.1c-0.1,0.2-0.1,0.3-0.7,0.3c-0.8,0-1.3,0-1.8,0c-0.5,0-0.8,0-1.1,0
	c0,0-0.2,0-0.4,0c-0.2,0-0.5,0-0.6,0c-0.1,0-0.2,0-0.2-0.1c0,0,0-0.1,0.1-0.1c0.1,0,0.2,0,0.3,0c0.2,0,0.3-0.3,0.3-0.6
	c0.1-0.4,0.1-1.3,0.1-2.3v-1.9c0-1.7,0-2,0-2.3c0-0.4-0.1-0.5-0.5-0.6c-0.1,0-0.3,0-0.4,0c0,0-0.1,0-0.1-0.1C65,64,65,64,65.1,64
	c0.5,0,1.2,0,1.2,0c0.1,0,0.8,0,1.2,0c0.1,0,0.2,0,0.2,0.1c0,0,0,0.1-0.1,0.1c-0.1,0-0.2,0-0.4,0c-0.3,0.1-0.4,0.2-0.4,0.6
	c0,0.3,0,0.6,0,2.3V69z"/>
<path class="st2" d="M73.1,69c0,1.6,0,2.3,0.2,2.5c0.2,0.2,0.5,0.2,1.3,0.2c0.6,0,1,0,1.3-0.3c0.1-0.2,0.2-0.4,0.3-0.6
	c0-0.1,0-0.1,0.1-0.1c0.1,0,0.1,0,0.1,0.2c0,0.1-0.1,0.8-0.2,1.1c-0.1,0.2-0.1,0.3-0.7,0.3c-0.8,0-1.3,0-1.8,0c-0.5,0-0.8,0-1.1,0
	c0,0-0.2,0-0.4,0c-0.2,0-0.5,0-0.6,0c-0.1,0-0.2,0-0.2-0.1c0,0,0-0.1,0.1-0.1c0.1,0,0.2,0,0.3,0c0.2,0,0.3-0.3,0.3-0.6
	c0.1-0.4,0.1-1.3,0.1-2.3v-1.9c0-1.7,0-2,0-2.3c0-0.4-0.1-0.5-0.5-0.6c-0.1,0-0.3,0-0.4,0c0,0-0.1,0-0.1-0.1c0-0.1,0.1-0.1,0.2-0.1
	c0.5,0,1.2,0,1.2,0c0.1,0,0.8,0,1.2,0c0.1,0,0.2,0,0.2,0.1c0,0,0,0.1-0.1,0.1c-0.1,0-0.2,0-0.4,0c-0.3,0.1-0.4,0.2-0.4,0.6
	c0,0.3,0,0.6,0,2.3V69z"/>
<path class="st2" d="M80.2,64.3c0.1-0.4,0.2-0.4,0.2-0.4c0.1,0,0.1,0.1,0.2,0.4c0.2,0.4,1.8,4.8,2.5,6.5c0.4,1,0.7,1.1,0.9,1.2
	c0.2,0.1,0.3,0.1,0.4,0.1c0.1,0,0.1,0,0.1,0.1c0,0.1-0.1,0.1-0.2,0.1c-0.2,0-0.9,0-1.7,0c-0.2,0-0.3,0-0.3-0.1c0,0,0-0.1,0.1-0.1
	c0.1,0,0.1-0.1,0.1-0.3l-1-2.6c0,0,0-0.1-0.1-0.1h-2.3c-0.1,0-0.1,0-0.1,0.1l-0.6,1.9c-0.1,0.3-0.1,0.5-0.1,0.7
	c0,0.2,0.2,0.3,0.4,0.3h0.1c0.1,0,0.1,0,0.1,0.1c0,0.1-0.1,0.1-0.2,0.1c-0.3,0-0.7,0-0.8,0c-0.1,0-0.7,0-1.2,0c-0.1,0-0.2,0-0.2-0.1
	c0,0,0-0.1,0.1-0.1c0.1,0,0.2,0,0.3,0c0.5-0.1,0.7-0.5,0.9-1L80.2,64.3z M81.3,68.5C81.4,68.5,81.4,68.5,81.3,68.5l-1-3
	c-0.1-0.2-0.1-0.2-0.2,0l-0.9,2.9c0,0.1,0,0.1,0,0.1H81.3z"/>
<line class="st3" x1="0" y1="68.2" x2="41.8" y2="68.2"/>
<line class="st4" x1="0" y1="68.2" x2="41.8" y2="68.2"/>
<line class="st3" x1="89.5" y1="68.2" x2="131.3" y2="68.2"/>
<line class="st4" x1="89.5" y1="68.2" x2="131.3" y2="68.2"/>
</svg>
