<?xml version="1.0" encoding="utf-8"?>
<!-- Generator: Adobe Illustrator 25.4.1, SVG Export Plug-In . SVG Version: 6.00 Build 0)  -->
<svg version="1.1" id="Warstwa_1" xmlns="http://www.w3.org/2000/svg" xmlns:xlink="http://www.w3.org/1999/xlink" x="0px" y="0px"
	 viewBox="0 0 895 485" style="enable-background:new 0 0 895 485;" xml:space="preserve">
<style type="text/css">
	
		.st0{clip-path:url(#SVGID_00000023278693165742036970000008243487058986648736_);fill-rule:evenodd;clip-rule:evenodd;fill:#FFFFFF;}
	.st1{clip-path:url(#SVGID_00000023278693165742036970000008243487058986648736_);fill:#FFFFFF;}
</style>
<g>
	<g>
		<g>
			<defs>
				
					<rect id="SVGID_1_" x="47.7" y="57.9" transform="matrix(1 -2.991998e-03 2.991998e-03 1 -0.7236 1.34)" width="799.6" height="369.19"/>
			</defs>
			<clipPath id="SVGID_00000183229085027898189510000004406444048434010283_">
				<use xlink:href="#SVGID_1_"  style="overflow:visible;"/>
			</clipPath>
			
				<path style="clip-path:url(#SVGID_00000183229085027898189510000004406444048434010283_);fill-rule:evenodd;clip-rule:evenodd;fill:#FFFFFF;" d="
				M459.73,118.74c5.19,6.47,10.75,12.68,15.51,19.45c22.38,32.05,21.02,60.53-11.79,81.51c-36.5,23.36-77.44,39.78-116.43,59.26
				c-33.52,16.74-67.71,32.33-100.24,50.79c-19.03,10.8-31.1,28.7-29.43,54.14c-12.41-25.97-10.86-51.91,9.54-69.11
				c21.12-17.78,45.33-32.71,70.04-45.27c36.91-18.76,75.46-34.3,113.25-51.37c4.56-2.05,8.8-4.95,13-7.74
				C460.53,185.53,468.57,164.69,459.73,118.74"/>
			
				<path style="clip-path:url(#SVGID_00000183229085027898189510000004406444048434010283_);fill-rule:evenodd;clip-rule:evenodd;fill:#FFFFFF;" d="
				M413.85,202.16c-12.34,6.61-23.4,12.55-36.13,19.37c-15.13-31.45-29.35-60.99-45.46-94.45c-7.95,16.46-14.33,29.1-20.21,41.99
				c-11.63,25.51-22.64,51.33-34.65,76.66c-3.03,6.38-7.36,22.97-7.36,22.97s-19.19,3.92-25.45,10.47
				c7.26-16.16,14.44-32.34,21.8-48.46c21.93-47.94,43.73-95.96,66.19-143.65c2.41-5.15,8.73-11.5,13.41-11.63
				c4.48-0.15,11.04,6.17,13.47,11.22C377.8,124.42,395.34,162.57,413.85,202.16"/>
			
				<path style="clip-path:url(#SVGID_00000183229085027898189510000004406444048434010283_);fill-rule:evenodd;clip-rule:evenodd;fill:#FFFFFF;" d="
				M522.04,348.16c-13.24,11.96-118.68,13.55-136.27,3.91c11.08-2.75,18.9-5.25,26.91-6.55c14.78-2.44,19.06-9.06,12.16-23.24
				c-7.81-16.01-14.27-32.66-22.18-51.05c11.75-5.78,22.98-11.3,35.75-17.57c7.96,16.52,16.16,31.21,22.24,46.68
				C471.08,326.86,485.18,348.36,522.04,348.16"/>
			<path style="clip-path:url(#SVGID_00000183229085027898189510000004406444048434010283_);fill:#FFFFFF;" d="M107.94,402.59
				c16.71-0.05,25-20.08,24.88-60.07l-0.63-209.22c-0.03-8.6-1.89-14.8-5.56-18.59c-3.68-3.78-10.21-6.55-19.58-8.3
				c-8.36-1.49-12.54-4.01-12.55-7.56c-0.01-2.78,3.65-4.19,11-4.21c7.08-0.02,14.87,0.15,23.35,0.5
				c8.48,0.35,15.51,0.52,21.08,0.51c4.05-0.01,9.17-0.22,15.38-0.62c6.2-0.4,12.97-0.61,20.31-0.63
				c7.34-0.02,11.01,1.36,11.02,4.14c0.01,3.55-4.16,6.09-12.51,7.63c-9.11,1.8-14.99,4.48-17.63,8.03c-2.65,3.55-3.96,9.88-3.93,19
				l0.46,155.3c0.06,18.98-0.34,34.68-1.19,47.09c-0.85,12.4-2.53,22.47-5.03,30.2c-2.51,7.73-4.46,12.86-5.84,15.4
				c-1.39,2.53-3.97,6.59-7.75,12.17c-11.6,16.74-27.14,25.14-46.63,25.2c-11.65,0.03-21.08-1.52-28.3-4.66
				c-7.22-3.15-10.84-6.87-10.86-11.17c-0.02-5.07,1.43-9.82,4.33-14.25c2.9-4.44,6-6.66,9.28-6.67c8.35-0.02,14.69,3.24,19.01,9.82
				C94.89,398.96,100.85,402.61,107.94,402.59"/>
			<path style="clip-path:url(#SVGID_00000183229085027898189510000004406444048434010283_);fill:#FFFFFF;" d="M777.65,96.62
				c5.88-0.02,12.9-0.24,21.05-0.67c8.15-0.42,16.51-0.65,25.07-0.68c7.75-0.02,11.64,1.44,11.65,4.38
				c0.01,3.75-4.39,6.43-13.21,8.06c-9.89,1.9-16.5,4.33-19.83,7.28c-3.34,2.96-5.13,7.77-5.37,14.46
				c-0.5,12.84-0.54,87.71-0.13,224.62c0.02,6.68-2.78,10.04-8.39,10.05c-2.95,0.01-7.63-2.18-14.06-6.58
				c-6.43-4.39-12.6-10.59-18.51-18.59c-7.25-9.87-55.02-68.29-143.32-175.25c-3.49-4.26-6.31-6.4-8.44-6.39
				c-2.41,0.01-3.6,2.82-3.58,8.43c-1.14,66.32-1.66,116.46-1.56,150.42c0.05,18.19,8.64,28.85,25.77,32.01
				c8.83,1.58,13.25,3.97,13.26,7.18c0.01,2.94-3.87,4.42-11.62,4.45c-7.76,0.02-14.91-0.29-21.46-0.94
				c-6.56-0.65-11.98-0.97-16.25-0.95c-4.28,0.01-9.49,0.36-15.64,1.05c-6.15,0.68-13.1,1.04-20.86,1.07
				c-7.76,0.02-11.63-1.44-11.64-4.38c-0.01-2.67,4.4-5.23,13.21-7.66c13.62-3.78,21.34-14.77,23.17-32.96
				c4.68-45.2,6.92-98.69,6.74-160.46c-0.04-13.1-3.35-22.85-9.91-29.25c-6.58-6.4-16.55-11.72-29.93-15.95
				c-8.3-2.65-12.45-5.84-12.46-9.59c-0.01-3.74,3.05-5.62,9.21-5.64c8.29,0.24,17.98,0.61,29.08,1.12
				c11.09,0.5,21.99,0.73,32.69,0.7c2.94-0.01,6.15,2.26,9.65,6.79c3.49,4.8,28.65,36.48,75.49,95.03
				c46.84,58.56,72.8,90.9,77.9,97.03c4.56,5.34,7.91,8,10.05,7.99c2.41-0.01,3.73-2.82,3.99-8.44c0.48-17.11,0.62-59.9,0.42-128.35
				l-0.1-34.9c-0.28-4.81-3.04-9.48-8.26-14.01c-5.23-4.53-10.25-7.19-15.07-7.98c-8.83-1.58-13.25-4.23-13.26-7.98
				c-0.01-2.94,3.86-4.42,11.62-4.45L777.65,96.62z"/>
		</g>
	</g>
</g>
</svg>
