<svg xmlns="http://www.w3.org/2000/svg" viewBox="0 0 76.29 70"><defs><style>.cls-1{fill:#afa278;}</style></defs><g id="Warstwa_2" data-name="Warstwa 2"><g id="Warstwa_1-2" data-name="Warstwa 1"><path class="cls-1" d="M62.12,16a1.27,1.27,0,0,1-1.27-1.27V1.28a1.28,1.28,0,1,1,2.55,0v13.4A1.27,1.27,0,0,1,62.12,16Z"/><path class="cls-1" d="M62.12,7.54a1.28,1.28,0,0,1-.9-2.18l4.1-4.1a1.28,1.28,0,1,1,1.81,1.81L63,7.17A1.28,1.28,0,0,1,62.12,7.54Z"/><path class="cls-1" d="M62.12,7.54a1.27,1.27,0,0,1-.9-.37l-4.1-4.1a1.28,1.28,0,0,1,1.81-1.81L63,5.36a1.28,1.28,0,0,1-.91,2.18Z"/><path class="cls-1" d="M62.12,16a1.22,1.22,0,0,1-.63-.17L49.88,9.08a1.28,1.28,0,0,1-.47-1.74,1.29,1.29,0,0,1,1.75-.47l11.6,6.7a1.29,1.29,0,0,1,.47,1.75A1.27,1.27,0,0,1,62.12,16Z"/><path class="cls-1" d="M54.84,11.75a1.28,1.28,0,0,1-1.23-.95l-1.5-5.6a1.27,1.27,0,1,1,2.46-.66l1.51,5.6a1.29,1.29,0,0,1-.91,1.57A1.24,1.24,0,0,1,54.84,11.75Z"/><path class="cls-1" d="M49.24,13.25a1.28,1.28,0,0,1-.33-2.51l5.6-1.5a1.28,1.28,0,0,1,1.57.9,1.29,1.29,0,0,1-.91,1.57l-5.6,1.5A1.24,1.24,0,0,1,49.24,13.25Z"/><path class="cls-1" d="M50.52,22.65a1.27,1.27,0,0,1-.64-2.38l11.61-6.7a1.27,1.27,0,0,1,1.27,2.21l-11.6,6.7A1.23,1.23,0,0,1,50.52,22.65Z"/><path class="cls-1" d="M54.84,20.16a1.24,1.24,0,0,1-.33,0l-5.6-1.51a1.27,1.27,0,1,1,.66-2.46l5.6,1.5a1.28,1.28,0,0,1-.33,2.51Z"/><path class="cls-1" d="M53.34,25.77a1.3,1.3,0,0,1-1.23-1.61l1.5-5.61a1.27,1.27,0,0,1,1.56-.9,1.28,1.28,0,0,1,.91,1.56l-1.51,5.61A1.28,1.28,0,0,1,53.34,25.77Z"/><path class="cls-1" d="M62.12,29.35a1.27,1.27,0,0,1-1.27-1.27V14.68a1.28,1.28,0,1,1,2.55,0v13.4A1.27,1.27,0,0,1,62.12,29.35Z"/><path class="cls-1" d="M58,28.47a1.28,1.28,0,0,1-.9-.38,1.27,1.27,0,0,1,0-1.8l4.1-4.11A1.28,1.28,0,0,1,63,24l-4.1,4.1A1.29,1.29,0,0,1,58,28.47Z"/><path class="cls-1" d="M66.23,28.47a1.29,1.29,0,0,1-.91-.38L61.22,24A1.28,1.28,0,0,1,63,22.18l4.1,4.11a1.27,1.27,0,0,1,0,1.8A1.28,1.28,0,0,1,66.23,28.47Z"/><path class="cls-1" d="M73.73,22.65a1.23,1.23,0,0,1-.64-.17l-11.6-6.7a1.27,1.27,0,1,1,1.27-2.21l11.61,6.7a1.27,1.27,0,0,1-.64,2.38Z"/><path class="cls-1" d="M70.91,25.77a1.27,1.27,0,0,1-1.23-.95l-1.51-5.61a1.28,1.28,0,0,1,.91-1.56,1.27,1.27,0,0,1,1.56.9l1.5,5.61a1.3,1.3,0,0,1-1.23,1.61Z"/><path class="cls-1" d="M69.41,20.16a1.28,1.28,0,0,1-.33-2.51l5.6-1.5a1.27,1.27,0,1,1,.66,2.46l-5.6,1.51A1.24,1.24,0,0,1,69.41,20.16Z"/><path class="cls-1" d="M62.13,16A1.25,1.25,0,0,1,61,15.32a1.28,1.28,0,0,1,.47-1.75l11.6-6.7a1.29,1.29,0,0,1,1.75.47,1.28,1.28,0,0,1-.47,1.74l-11.61,6.7A1.22,1.22,0,0,1,62.13,16Z"/><path class="cls-1" d="M75,13.25a1.24,1.24,0,0,1-.33,0l-5.6-1.5a1.29,1.29,0,0,1-.91-1.57,1.28,1.28,0,0,1,1.57-.9l5.6,1.5A1.28,1.28,0,0,1,75,13.25Z"/><path class="cls-1" d="M69.41,11.75a1.24,1.24,0,0,1-.33,0,1.29,1.29,0,0,1-.91-1.57l1.51-5.6a1.27,1.27,0,1,1,2.46.66l-1.5,5.6A1.28,1.28,0,0,1,69.41,11.75Z"/><path class="cls-1" d="M67.81,47.4H6.52a1.28,1.28,0,0,1-1.07-.58l-5.24-8A1.22,1.22,0,0,1,0,38.08V12.93a1.27,1.27,0,0,1,1.28-1.27H43.93a1.28,1.28,0,0,1,0,2.55H2.56V37.7l4.65,7.14H67.12l4.66-7.14V30.6a1.28,1.28,0,1,1,2.55,0v7.48a1.22,1.22,0,0,1-.21.69l-5.24,8A1.29,1.29,0,0,1,67.81,47.4Z"/><path class="cls-1" d="M65.31,43.12A1.28,1.28,0,0,1,64,41.84V36H10.31v5.87a1.28,1.28,0,0,1-2.56,0V34.69A1.27,1.27,0,0,1,9,33.42H65.31a1.27,1.27,0,0,1,1.27,1.27v7.15A1.27,1.27,0,0,1,65.31,43.12Z"/><path class="cls-1" d="M13.32,19.08H6.86a1.28,1.28,0,1,1,0-2.55h6.46a1.28,1.28,0,0,1,0,2.55Z"/><path class="cls-1" d="M8.84,68.09a1.28,1.28,0,0,1-.41-2.49C24.33,60.15,22.51,54,22.49,53.91a1.29,1.29,0,0,1,.78-1.62,1.27,1.27,0,0,1,1.62.74,6.28,6.28,0,0,1-.51,4.73c-1.88,4-7,7.46-15.12,10.26A1.54,1.54,0,0,1,8.84,68.09Z"/><path class="cls-1" d="M66.35,68.09a1.54,1.54,0,0,1-.42-.07c-8.15-2.8-13.24-6.25-15.12-10.26A6.28,6.28,0,0,1,50.3,53a1.28,1.28,0,0,1,2.4.88c-.05.16-1.72,6.28,14.06,11.69a1.28,1.28,0,0,1-.41,2.49Z"/><path class="cls-1" d="M37.59,70a1.27,1.27,0,0,1-1.27-1.28V53.48a1.28,1.28,0,1,1,2.55,0V68.72A1.28,1.28,0,0,1,37.59,70Z"/></g></g></svg>