<svg xmlns="http://www.w3.org/2000/svg" viewBox="0 0 76.14 71"><defs><style>.cls-1{fill:#afa278;;stroke:#afa278;;stroke-miterlimit:10;}</style></defs><g id="Warstwa_2" data-name="Warstwa 2"><g id="Warstwa_1-2" data-name="Warstwa 1"><path class="cls-1" d="M1.85,23a1.31,1.31,0,0,1-1-.42,1.34,1.34,0,0,1,0-1.9c.14-.13,14-13.27,31.61-5.66,11.3,4.89,22.19,5.8,29.88,2.49A19.15,19.15,0,0,0,73,5.94a1.35,1.35,0,1,1,2.53.93A21.79,21.79,0,0,1,63.46,20c-8.36,3.6-20,2.69-32-2.49C15.54,10.62,3.3,22.14,2.78,22.63A1.35,1.35,0,0,1,1.85,23Z"/><path class="cls-1" d="M57.55,46.45c-8.21,0-14.79-4.35-21.23-8.6-2.5-1.65-5.07-3.36-7.73-4.8-12.16-6.61-25.27,2.48-25.4,2.58a1.35,1.35,0,0,1-1.56-2.2c.59-.42,14.6-10.18,28.25-2.75,2.76,1.5,5.38,3.24,7.92,4.92,9.9,6.54,18.45,12.18,32.5,4.48a1.36,1.36,0,0,1,1.83.54,1.34,1.34,0,0,1-.54,1.83A28.93,28.93,0,0,1,57.55,46.45Z"/><path class="cls-1" d="M57.34,70.5c-13.56,0-20.92-7.42-28.08-14.64-1.83-1.85-3.72-3.76-5.69-5.51C13.2,41.14,3.12,49.19,2.7,49.53A1.35,1.35,0,1,1,1,47.45c.13-.1,12.3-9.83,24.37.89,2,1.8,4,3.74,5.82,5.62C39.87,62.73,48.09,71,67.34,66.56A1.35,1.35,0,1,1,68,69.18,47.07,47.07,0,0,1,57.34,70.5Z"/><path class="cls-1" d="M41.89,56.38a4.6,4.6,0,1,1,4.6-4.6A4.6,4.6,0,0,1,41.89,56.38Zm0-6.51a1.91,1.91,0,1,0,1.9,1.91A1.92,1.92,0,0,0,41.89,49.87Z"/><path class="cls-1" d="M64.76,36.16a5,5,0,1,1,5-5A5.06,5.06,0,0,1,64.76,36.16Zm0-7.4a2.35,2.35,0,1,0,2.35,2.35A2.35,2.35,0,0,0,64.76,28.76Z"/><path class="cls-1" d="M35.34,9.77A4.64,4.64,0,1,1,40,5.13,4.64,4.64,0,0,1,35.34,9.77Zm0-6.57a1.94,1.94,0,1,0,1.94,1.93A1.93,1.93,0,0,0,35.34,3.2Z"/><path class="cls-1" d="M10.4,58.78A3.75,3.75,0,1,1,14.15,55,3.75,3.75,0,0,1,10.4,58.78Zm0-4.8a1.06,1.06,0,1,0,1,1.05A1.06,1.06,0,0,0,10.4,54Z"/><path class="cls-1" d="M17.28,26.52a4.58,4.58,0,1,1,4.58-4.58A4.58,4.58,0,0,1,17.28,26.52Zm0-6.46a1.89,1.89,0,1,0,1.88,1.88A1.89,1.89,0,0,0,17.28,20.06Z"/><path class="cls-1" d="M26,42.61a1.41,1.41,0,0,1-1-.39,1.36,1.36,0,0,1-.39-1,2.11,2.11,0,0,1,0-.26,1.83,1.83,0,0,1,.08-.25l.12-.24c.06-.07.11-.14.17-.2a1.35,1.35,0,0,1,1.22-.37,1.21,1.21,0,0,1,.25.08,1.34,1.34,0,0,1,.24.12l.2.17a1.34,1.34,0,0,1,0,1.91,1.56,1.56,0,0,1-.2.16l-.24.12a.81.81,0,0,1-.25.08A1.15,1.15,0,0,1,26,42.61Z"/><path class="cls-1" d="M22.91,64.46a1.37,1.37,0,0,1-1-.4,1.34,1.34,0,0,1-.39-1,1.09,1.09,0,0,1,0-.26,1.11,1.11,0,0,1,.07-.26l.12-.23.17-.21a1.36,1.36,0,0,1,2.31,1,1.37,1.37,0,0,1-1.35,1.35Z"/><path class="cls-1" d="M59.85,64.46a1.37,1.37,0,0,1-1-.4,1.38,1.38,0,0,1-.39-1,1.35,1.35,0,0,1,2.3-1,1.38,1.38,0,0,1,.39,1,1.36,1.36,0,0,1-.39,1A1.37,1.37,0,0,1,59.85,64.46Z"/><path class="cls-1" d="M44.11,27.21l-.26,0a1,1,0,0,1-.25-.07,1.67,1.67,0,0,1-.23-.12l-.21-.17a1.43,1.43,0,0,1-.39-1,1.4,1.4,0,0,1,.39-.95,1.73,1.73,0,0,1,.21-.17l.23-.12a1,1,0,0,1,.25-.08,1.57,1.57,0,0,1,.53,0,1,1,0,0,1,.25.08l.23.12a1.73,1.73,0,0,1,.21.17,1.36,1.36,0,0,1,.39.95,1.38,1.38,0,0,1-.39,1l-.21.17a1.67,1.67,0,0,1-.23.12,1,1,0,0,1-.25.07A1.24,1.24,0,0,1,44.11,27.21Z"/><path class="cls-1" d="M58.74,14.57a1.35,1.35,0,0,1-1-2.31A1.34,1.34,0,0,1,59,11.9a.87.87,0,0,1,.26.08.78.78,0,0,1,.22.12,1.16,1.16,0,0,1,.21.16,1.36,1.36,0,0,1-.95,2.31Z"/><path class="cls-1" d="M9.1,5.28a1.37,1.37,0,0,1-.95-.4,1.34,1.34,0,0,1-.39-.95,2.11,2.11,0,0,1,0-.26,2,2,0,0,1,.08-.26L8,3.18A1.46,1.46,0,0,1,8.15,3a1.36,1.36,0,0,1,1.22-.36,1.17,1.17,0,0,1,.25.07,1.71,1.71,0,0,1,.23.13,1.16,1.16,0,0,1,.21.16l.17.21a1.27,1.27,0,0,1,.12.23,2,2,0,0,1,.08.26,2.06,2.06,0,0,1,0,.26,1.35,1.35,0,0,1-.4.95,1.2,1.2,0,0,1-.21.17,1.71,1.71,0,0,1-.23.13l-.25.07A1.18,1.18,0,0,1,9.1,5.28Z"/><path class="cls-1" d="M56.07,40.8a1.36,1.36,0,0,1-1-.39L55,40.2a1,1,0,0,1-.12-.23,1.21,1.21,0,0,1-.08-.25,1.23,1.23,0,0,1,0-.27,1.36,1.36,0,0,1,.39-1,1.39,1.39,0,0,1,1.9,0,1.37,1.37,0,0,1,.4,1,2.45,2.45,0,0,1,0,.27,1.25,1.25,0,0,1-.09.25,1,1,0,0,1-.12.23,1,1,0,0,1-.17.21A1.32,1.32,0,0,1,56.07,40.8Z"/></g></g></svg>