<svg xmlns="http://www.w3.org/2000/svg" viewBox="0 0 85.01 70"><defs><style>.cls-1{fill:#fff;}.cls-2{fill:#afa278;}</style></defs><g id="Warstwa_2" data-name="Warstwa 2"><g id="Warstwa_1-2" data-name="Warstwa 1"><path class="cls-1" d="M79.34,15.44H65.14c0-.07-.07-.15-.12-.23a25.7,25.7,0,0,0-45,0c0,.08-.07.16-.11.23H5.67a3.78,3.78,0,0,0-3.78,3.78V64.33a3.78,3.78,0,0,0,3.78,3.78H79.34a3.78,3.78,0,0,0,3.78-3.78V19.22A3.78,3.78,0,0,0,79.34,15.44ZM42.5,7.56a20.06,20.06,0,0,1,15.93,7.88H26.58A20.05,20.05,0,0,1,42.5,7.56Z"/><path class="cls-2" d="M79.34,70H5.67A5.67,5.67,0,0,1,0,64.33V19.22a5.67,5.67,0,0,1,5.67-5.66H18.75a27.58,27.58,0,0,1,47.5,0H79.34A5.67,5.67,0,0,1,85,19.22V64.33A5.67,5.67,0,0,1,79.34,70ZM5.67,17.33a1.89,1.89,0,0,0-1.89,1.89V64.33a1.89,1.89,0,0,0,1.89,1.89H79.34a1.89,1.89,0,0,0,1.89-1.89V19.22a1.89,1.89,0,0,0-1.89-1.89H63.9l-.49-1.13,0-.08a23.81,23.81,0,0,0-41.73,0,.3.3,0,0,0,0,.08l-.49,1.13Zm56.57,0H22.76l2.32-3a21.91,21.91,0,0,1,34.85,0ZM31,13.56H54a18.09,18.09,0,0,0-23,0Z"/><circle class="cls-1" cx="42.5" cy="41.92" r="18.04" transform="translate(-5.68 77.16) rotate(-80.78)"/><path class="cls-2" d="M42.5,61.85A19.93,19.93,0,1,1,62.43,41.92,20,20,0,0,1,42.5,61.85Zm0-36.08A16.15,16.15,0,1,0,58.66,41.92,16.17,16.17,0,0,0,42.5,25.77Z"/><polygon class="cls-2" points="54.05 37.97 46.45 37.97 46.45 30.37 38.55 30.37 38.55 37.97 30.95 37.97 30.95 45.87 38.55 45.87 38.55 53.47 46.45 53.47 46.45 45.87 54.05 45.87 54.05 37.97"/></g></g></svg>