<svg xmlns="http://www.w3.org/2000/svg" viewBox="0 0 58.14 73"><defs><style>.cls-1,.cls-2{fill:none;stroke:#afa278;stroke-linejoin:round;stroke-width:3px;}.cls-1{stroke-linecap:round;}</style></defs><g id="Warstwa_2" data-name="Warstwa 2"><g id="Warstwa_1-2" data-name="Warstwa 1"><path class="cls-1" d="M14.62,54a21.92,21.92,0,0,1-.88-9.95"/><path class="cls-1" d="M18.19,56.62a2.71,2.71,0,1,1-2.71-2.72A2.72,2.72,0,0,1,18.19,56.62Z"/><path class="cls-1" d="M45,44.33A26.08,26.08,0,0,1,44.89,50"/><path class="cls-1" d="M40.41,59.73l-.27,1.13a1.9,1.9,0,0,1-1.5-2.22l2-6a3.48,3.48,0,0,1,4.17-2.51h0a3.47,3.47,0,0,1,2.61,4.1l-.88,6.28a1.9,1.9,0,0,1-2.33,1.32l.26-1.14"/><path class="cls-1" d="M36.79,41h0l.66.26,13.8,5.57a5.4,5.4,0,0,1,3,3.27A83.68,83.68,0,0,1,56.64,65c-21.53,9-33.77,8.63-55.14-.34A77.43,77.43,0,0,1,3.9,50.12a5.42,5.42,0,0,1,3-3.26l9.28-3.74,4.56-1.84.64-.25"/><path class="cls-1" d="M15.61,20.07c0-1.38-.1-4.58-.18-5.67,0-3.75.94-11.37,7.73-11.39,2.16,0,1.56-1.51,5.72-1.51,12.76,0,13.82,8.74,13.82,12.9-.13,1-.15,4.18-.16,5.69"/><path class="cls-1" d="M29.07,37.76a9,9,0,0,0,1.65-.13l.25,0a6.2,6.2,0,0,0,3.24-1.13A19,19,0,0,0,35.82,35a19.6,19.6,0,0,0,3.67-4.69l1-2.89a1.76,1.76,0,0,1,.48-.74c1.94-1.82,3.22-5.93,1.06-7,0,0-1.24.66-1.93-.35-.38-.55-.48-2.66-.71-3.77a.45.45,0,0,0-.5-.36,22.15,22.15,0,0,1-16.55-4.15.68.68,0,0,0-.61-.13.6.6,0,0,0-.48.41,27,27,0,0,1-.73,3.43,13.29,13.29,0,0,1-2.88,5c-.7.75-1.6-.06-1.6-.06-2.15,1-.88,5.14,1.06,7a1.88,1.88,0,0,1,.49.74l1,2.89A19.54,19.54,0,0,0,22.31,35a20.73,20.73,0,0,0,1.61,1.42,6.2,6.2,0,0,0,3.24,1.13l.25,0a9,9,0,0,0,1.66.13"/><path class="cls-1" d="M35.82,35a36.59,36.59,0,0,0,1,6"/><path class="cls-1" d="M22.31,35a35.55,35.55,0,0,1-1,6"/><polyline class="cls-2" points="36.62 40.29 35.8 41.93 35.8 41.93 29.07 55.36 37.54 47.47 36.99 45.79 40.05 45.28 40.05 42.34"/><polyline class="cls-2" points="21.48 40.43 22.3 42.05 22.3 42.05 29.07 55.36 20.59 47.47 21.14 45.79 18.08 45.28 18.08 42.34"/><path class="cls-2" d="M22.3,42h0c4.8,3.28,8.44,3.41,13.5-.12h0"/><polyline class="cls-2" points="29.07 55.36 27.11 59.35 27.11 71.44"/></g></g></svg>