<svg xmlns="http://www.w3.org/2000/svg" viewBox="0 0 81.28 70"><defs><style>.cls-1{fill:#afa278;}</style></defs><g id="Warstwa_2" data-name="Warstwa 2"><g id="Warstwa_1-2" data-name="Warstwa 1"><path class="cls-1" d="M41.87,28.82A4.81,4.81,0,0,1,39.21,20l4.1-2.73A4.76,4.76,0,0,1,46,16.46a4.81,4.81,0,0,1,2.66,8.81L44.55,28A4.73,4.73,0,0,1,41.87,28.82ZM46,19.21a2,2,0,0,0-1.15.35L40.73,22.3A2,2,0,0,0,39.81,24,2.06,2.06,0,0,0,43,25.72L47.13,23A2.06,2.06,0,0,0,46,19.21Z"/><path class="cls-1" d="M44.61,34.31a4.81,4.81,0,0,1-4.8-4.81,4.75,4.75,0,0,1,1-2.88L43,28.27a2.09,2.09,0,0,0-.41,1.23,2.06,2.06,0,0,0,2.06,2.06,2,2,0,0,0,1.15-.35l4.11-2.74a2,2,0,0,0,.92-1.71,2.06,2.06,0,0,0-2.06-2.06V22a4.81,4.81,0,0,1,2.67,8.81l-4.11,2.73A4.76,4.76,0,0,1,44.61,34.31Z"/><path class="cls-1" d="M47.36,39.8A4.82,4.82,0,0,1,42.55,35a4.77,4.77,0,0,1,1-2.89l2.19,1.65a2.06,2.06,0,0,0,2.8,2.94L52.62,34a2.06,2.06,0,0,0-1.14-3.77V27.45a4.8,4.8,0,0,1,2.66,8.8L50,39A4.73,4.73,0,0,1,47.36,39.8Z"/><path class="cls-1" d="M68.07,29.18c-.37-.07-9-1.85-9-8.6L51.7,15.71a4.72,4.72,0,0,1-2.28-4.05,4.81,4.81,0,0,1,4.8-4.81A4.63,4.63,0,0,1,56,7.18c.37.12,10.52,3.5,13.43,5.39a20.19,20.19,0,0,1,4.84,4.48,17.68,17.68,0,0,0,7.06,5.53l-1.16,2.49a20.43,20.43,0,0,1-8-6.25,17.47,17.47,0,0,0-4.22-4c-2.17-1.41-10-4.17-12.87-5.11a2,2,0,0,0-.8-.16,2,2,0,0,0-1,3.8l7.38,4.89a2.75,2.75,0,0,1,1.22,2.29c0,4.52,6.76,5.89,6.83,5.9Z"/><path class="cls-1" d="M69.44,39.34l-1.08-2.52,4.06-1.74a9.59,9.59,0,0,1,3.77-.77H81v2.74h-4.8a6.72,6.72,0,0,0-2.69.56Z"/><path class="cls-1" d="M53.54,70a8.24,8.24,0,0,1-8.24-8.24c0-.11,0-.23,0-.34l1.44-18.24,2.74.21L48.05,61.76a5.49,5.49,0,0,0,5.49,5.49,5.07,5.07,0,0,0,1.1-.11l17.83-3.55a5.49,5.49,0,0,0,4.4-5.38,5.41,5.41,0,0,0-.58-2.47L60.89,25.29l2.45-1.24L78.74,54.5A8.25,8.25,0,0,1,73,66.29L55.19,69.83A8.32,8.32,0,0,1,53.54,70Z"/><path class="cls-1" d="M45.3,18.52H42.55V15.36a1.35,1.35,0,0,0-.84-1.27c-.21-.08-.42-.16-.67-.23a4.06,4.06,0,0,1-2.73-2.74l-1.15-4A2.62,2.62,0,0,1,37.49,5a2.57,2.57,0,0,1,1.83-1.12L59.91,0A4.07,4.07,0,0,1,63.36,1.2a4,4,0,0,1,1.12,3.39l-.75,6.49L61,10.77l.76-6.53a1.29,1.29,0,0,0-1.43-1.49L39.86,6.54,41,10.36a1.29,1.29,0,0,0,.9.87l.85.3a4.06,4.06,0,0,1,2.6,3.83Z"/><path class="cls-1" d="M35.68,13.72a4.12,4.12,0,0,1-3.42-6.4,4.15,4.15,0,0,1,2.93-1.81l3.08-.38.34,2.73-3.08.38a1.34,1.34,0,0,0-1,.6A1.36,1.36,0,0,0,34.37,10a1.37,1.37,0,0,0,1.49,1l4.21-.52.34,2.73-4.22.52A4.36,4.36,0,0,1,35.68,13.72Z"/><rect class="cls-1" x="49.29" y="18.49" width="10.24" height="2.74" transform="translate(-2.01 6.74) rotate(-6.96)"/><rect class="cls-1" x="52.02" y="23.93" width="10.14" height="2.75" transform="translate(-2.72 7.33) rotate(-7.18)"/><path class="cls-1" d="M15.1,39.8a15.1,15.1,0,0,1,0-30.2v2.75A12.35,12.35,0,1,0,26.25,30l2.48,1.19A15.2,15.2,0,0,1,15.1,39.8Z"/><path class="cls-1" d="M23.34,32.94a10.54,10.54,0,0,1-2.91-.4l.72-2.64a8.5,8.5,0,0,0,2.19.29A8.24,8.24,0,0,0,31.57,22h2.75A11,11,0,0,1,23.34,32.94Z"/><path class="cls-1" d="M11.12,12.32l-2.69-.56a9.65,9.65,0,0,1,9.42-7.65,9.55,9.55,0,0,1,8.39,4.94l6.49-1.17.48,2.7-8.59,1.55-.43-1a6.87,6.87,0,0,0-13.07,1.22Z"/><rect class="cls-1" x="32.95" y="50.78" width="2.75" height="8.24"/><rect class="cls-1" x="17.25" y="48.72" width="8.06" height="2.75" transform="translate(-29.19 29.72) rotate(-45)"/><path class="cls-1" d="M50.1,45.29a4.81,4.81,0,0,1-3.84-7.69l2.2,1.65a2.07,2.07,0,0,0,1.64,3.3,2,2,0,0,0,1.08-.34l2.43-1.66a2.42,2.42,0,0,0,1.3-1.94,2.06,2.06,0,0,0-1.82-2l.31-2.73a4.8,4.8,0,0,1,4.25,4.78,5,5,0,0,1-2.54,4.23l-2.4,1.65A4.73,4.73,0,0,1,50.1,45.29Z"/></g></g></svg>