<?xml version="1.0" standalone="no"?>
<!DOCTYPE svg PUBLIC "-//W3C//DTD SVG 20010904//EN"
 "http://www.w3.org/TR/2001/REC-SVG-20010904/DTD/svg10.dtd">
<svg version="1.0" xmlns="http://www.w3.org/2000/svg"
 width="1790.000000pt" height="1790.000000pt" viewBox="0 0 1790.000000 1790.000000"
 preserveAspectRatio="xMidYMid meet">
<metadata>
Created by potrace 1.14, written by Peter Selinger 2001-2017
</metadata>
<g transform="translate(0.000000,1790.000000) scale(0.100000,-0.100000)"
fill="#000000" stroke="none">
<path d="M6929 12296 c-2 -3 -16 -6 -29 -9 -35 -5 -80 -28 -80 -40 0 -6 -3 -7
-7 -3 -15 14 -130 -122 -166 -196 -65 -134 -117 -250 -117 -259 0 -5 -4 -9
-10 -9 -6 0 -9 -3 -8 -7 2 -10 -8 -33 -82 -188 -34 -71 -60 -130 -59 -130 2 0
-7 -18 -19 -40 -11 -22 -38 -76 -58 -120 -83 -182 -134 -292 -216 -470 -67
-143 -89 -194 -90 -205 0 -3 -8 -16 -18 -30 -9 -14 -21 -36 -25 -49 -7 -22
-51 -122 -110 -246 -13 -27 -37 -79 -53 -115 -16 -36 -46 -101 -67 -145 -21
-44 -38 -86 -38 -92 0 -7 -4 -13 -8 -13 -3 0 -10 -10 -14 -22 -4 -13 -8 -25
-9 -28 -2 -5 -15 -34 -91 -197 -24 -50 -40 -94 -37 -97 3 -3 0 -6 -6 -6 -7 0
-12 -9 -12 -20 0 -11 -4 -20 -10 -20 -5 0 -10 -7 -10 -15 0 -8 -4 -23 -10 -33
-11 -20 -120 -253 -120 -257 0 -2 -20 -46 -45 -99 -25 -53 -45 -101 -45 -106
0 -6 -4 -10 -8 -10 -5 0 -9 -6 -9 -13 0 -7 -11 -38 -26 -68 -43 -92 -97 -209
-97 -214 0 -2 -17 -41 -39 -87 -21 -46 -48 -104 -60 -130 -11 -27 -31 -69 -42
-95 -45 -99 -61 -139 -70 -166 l-8 -29 24 25 c48 47 258 132 418 169 56 12 61
17 72 65 6 29 46 166 52 183 3 8 8 23 9 33 2 10 11 34 21 55 9 20 15 41 14 45
-1 5 14 42 34 84 19 41 35 79 35 84 0 5 5 9 12 9 6 0 9 3 6 6 -3 3 19 58 49
122 30 64 60 131 68 147 7 17 29 65 49 108 20 42 36 79 36 81 0 2 17 39 37 83
21 43 38 80 38 83 3 9 22 53 54 122 17 36 31 71 31 77 0 6 5 11 11 11 6 0 9 7
5 15 -3 8 -1 15 4 15 6 0 10 5 10 11 0 5 9 29 19 52 10 23 40 89 66 147 26 58
56 125 68 150 11 25 20 48 19 53 -1 4 2 7 8 7 5 0 10 7 10 15 0 8 4 23 10 33
5 9 24 51 43 92 61 133 108 231 200 420 50 102 91 187 92 190 0 3 27 58 59
122 50 102 59 116 72 104 8 -8 14 -18 14 -22 0 -8 30 -73 116 -248 35 -71 64
-136 64 -143 0 -7 4 -13 8 -13 6 0 29 -45 36 -70 1 -3 36 -76 79 -163 42 -87
77 -162 77 -167 0 -5 5 -10 10 -12 6 -2 12 -13 13 -26 0 -12 4 -22 7 -22 3 0
11 -15 18 -32 7 -18 18 -40 23 -48 5 -8 13 -25 18 -36 10 -24 97 -204 201
-419 37 -77 100 -208 140 -292 84 -174 60 -164 205 -84 44 24 109 59 145 78
155 81 376 200 416 224 l31 19 -35 72 c-51 107 -95 202 -97 208 -2 7 -40 88
-105 225 -64 135 -74 158 -72 168 1 4 -2 7 -7 7 -7 0 -12 9 -25 50 -1 3 -13
30 -28 60 -84 175 -122 256 -123 260 -1 6 -24 56 -95 205 -26 55 -62 132 -80
170 -18 39 -55 117 -82 175 -28 58 -71 148 -95 200 -25 52 -77 160 -116 240
-39 80 -71 147 -72 150 -8 36 -100 196 -130 226 -38 38 -129 104 -143 104 -10
0 -23 5 -28 10 -6 6 -12 8 -15 6z"/>
<path d="M3636 11913 c-1 -1 -74 -4 -161 -7 -88 -2 -160 -5 -160 -6 0 -14
-789 -11 -813 4 -6 3 -14 2 -17 -4 -4 -7 -12 -7 -18 -2 -14 10 -447 8 -491 -2
-67 -16 -91 -42 -82 -91 5 -26 18 -42 51 -65 24 -16 51 -30 59 -30 9 0 16 -5
16 -12 0 -6 2 -9 6 -6 3 3 22 2 42 -3 45 -12 142 -34 192 -44 36 -7 128 -44
175 -70 118 -65 179 -159 199 -306 1 -14 6 -31 10 -38 4 -6 2 -11 -4 -11 -6 0
-8 -5 -4 -12 4 -7 9 -408 10 -893 8 -2985 7 -3780 -7 -3780 -1 0 -2 -13 -4
-30 -7 -88 -49 -317 -61 -337 -3 -5 -8 -21 -10 -36 -3 -15 -25 -69 -50 -121
-79 -162 -187 -248 -324 -259 -69 -5 -180 13 -180 29 0 5 -3 8 -7 7 -12 -3
-65 29 -101 61 -32 28 -64 67 -107 127 -60 84 -197 177 -262 177 -12 0 -23 2
-23 6 0 3 -29 5 -65 4 -65 -2 -103 -16 -140 -50 -27 -24 -85 -99 -85 -109 0
-4 -6 -15 -14 -23 -18 -22 -48 -118 -52 -166 -1 -22 -3 -42 -4 -45 -7 -18 4
-78 16 -91 8 -8 14 -20 14 -25 0 -5 10 -18 23 -29 24 -22 132 -95 141 -95 2 0
17 -5 33 -12 15 -6 30 -12 33 -12 3 -1 10 -4 15 -7 6 -4 26 -10 45 -15 19 -4
40 -9 45 -10 6 -2 20 -5 33 -8 13 -3 31 -7 40 -10 63 -19 444 -28 527 -13 111
21 136 27 185 43 65 22 170 73 206 100 17 13 34 20 38 17 3 -4 6 -1 6 5 0 6
12 18 28 26 35 18 177 156 228 221 21 28 42 52 47 53 4 2 7 7 7 12 0 8 98 159
110 170 22 20 141 296 155 360 2 8 8 27 14 43 6 15 13 40 16 55 8 38 13 57 15
57 2 0 6 18 15 70 8 45 13 70 15 70 1 0 3 20 5 45 2 25 6 54 8 65 9 38 24 225
32 375 15 278 16 448 12 2870 -2 1095 0 1225 22 1297 5 17 7 34 3 37 -3 3 0 6
6 6 7 0 12 9 12 20 0 11 5 20 11 20 5 0 8 4 5 9 -9 13 76 86 133 116 28 14 51
23 51 20 0 -3 12 1 28 9 15 7 81 26 146 41 190 44 244 75 253 145 5 33 2 40
-22 56 -29 19 -35 21 -100 30 -40 6 -165 11 -169 7z"/>
<path d="M10708 11902 c-85 -27 -104 -114 -39 -179 43 -43 106 -75 235 -119
55 -19 109 -39 118 -44 10 -6 22 -10 27 -10 28 0 291 -139 325 -172 8 -7 24
-20 36 -28 60 -40 188 -199 173 -214 -4 -3 -1 -6 5 -6 7 0 12 -9 12 -19 0 -11
4 -22 9 -25 7 -4 29 -75 32 -101 0 -2 4 -19 10 -37 18 -63 22 -156 22 -468 0
-297 -10 -948 -18 -1180 -10 -300 -24 -592 -41 -860 -3 -41 -7 -109 -9 -150
-2 -41 -6 -102 -9 -135 -4 -33 -8 -94 -11 -135 -2 -41 -7 -102 -10 -135 -3
-33 -7 -87 -10 -120 -2 -33 -5 -60 -6 -60 -1 0 -3 -20 -4 -45 -1 -25 -4 -45
-4 -45 -1 0 -4 -18 -6 -40 -5 -69 -16 -165 -21 -186 -2 -10 -6 -29 -9 -41 -15
-68 -51 -167 -83 -226 -40 -72 -164 -205 -203 -217 -13 -4 -30 -12 -37 -18
-14 -11 -102 -44 -140 -53 -39 -8 -155 -56 -189 -78 -76 -49 -62 -113 29 -141
70 -21 445 -14 613 11 124 18 373 18 570 -1 107 -10 283 -19 400 -18 175 0
236 10 268 46 38 45 8 100 -75 136 -40 17 -221 62 -248 63 -3 0 -11 4 -18 10
-7 6 -15 8 -19 5 -3 -4 -18 0 -32 7 -14 7 -48 25 -76 39 -152 78 -250 220
-283 412 -13 74 -6 1550 12 2700 3 132 5 303 6 380 2 138 22 245 44 237 5 -2
12 1 16 7 12 21 83 -19 143 -80 31 -33 57 -63 57 -67 1 -4 19 -25 40 -47 22
-22 40 -43 40 -47 0 -4 15 -24 34 -45 19 -21 60 -70 92 -109 73 -89 116 -140
148 -179 14 -16 29 -34 33 -40 40 -52 100 -122 110 -128 7 -4 13 -13 13 -19 0
-6 8 -18 18 -27 10 -9 29 -30 42 -47 70 -88 145 -180 150 -184 4 -4 234 -282
300 -364 8 -10 20 -23 25 -30 6 -6 41 -49 80 -96 38 -47 75 -92 82 -100 7 -8
37 -44 65 -80 29 -36 57 -70 63 -76 5 -7 26 -31 44 -54 19 -23 41 -48 48 -56
7 -7 13 -17 13 -22 0 -6 4 -12 9 -14 4 -1 42 -43 82 -93 40 -49 77 -91 81 -93
5 -2 8 -8 8 -13 0 -5 14 -23 30 -39 17 -16 30 -34 30 -39 0 -5 3 -11 8 -13 6
-2 74 -82 105 -123 4 -5 24 -30 45 -54 53 -63 64 -76 92 -112 14 -18 39 -49
55 -68 55 -65 63 -75 136 -166 40 -49 75 -92 78 -95 3 -3 18 -21 33 -40 15
-19 37 -47 50 -62 13 -15 34 -42 48 -59 14 -18 41 -52 60 -74 19 -23 46 -56
60 -75 14 -18 30 -38 35 -44 6 -6 59 -72 118 -146 60 -74 114 -142 120 -150 7
-8 28 -35 47 -60 19 -24 47 -58 62 -75 16 -16 28 -34 28 -38 0 -4 11 -19 25
-33 14 -14 25 -28 25 -33 0 -11 200 -212 234 -236 16 -11 37 -28 48 -38 10 -9
21 -17 25 -17 3 0 20 -11 37 -24 26 -19 129 -77 146 -81 3 -1 17 -7 31 -12 24
-10 85 -18 102 -13 4 1 10 3 15 4 36 7 73 33 93 69 l24 42 1 2305 c0 1268 4
2316 7 2330 4 14 9 39 12 55 6 31 13 50 36 100 17 36 95 115 115 115 8 0 14 5
14 11 0 5 4 8 8 5 5 -3 27 4 49 15 22 11 96 33 164 50 192 46 273 69 290 85 8
8 20 14 25 14 5 0 20 16 32 35 32 45 23 87 -21 108 -70 33 -186 38 -577 23
-396 -15 -472 -17 -785 -20 -310 -2 -333 -4 -377 -23 -52 -24 -70 -48 -61 -84
15 -62 77 -96 248 -139 65 -17 124 -35 129 -40 6 -6 18 -10 27 -10 10 0 19 -3
21 -7 2 -5 28 -25 58 -45 103 -69 176 -149 218 -238 l26 -55 0 -1565 c0 -861
-2 -1617 -3 -1680 -5 -169 -33 -244 -88 -234 -43 8 -108 60 -178 142 -37 42
-74 86 -84 97 -9 11 -80 99 -156 195 -77 96 -144 180 -150 186 -5 6 -23 29
-40 50 -16 21 -42 53 -57 70 -16 17 -28 34 -28 37 0 4 -10 17 -22 30 -13 13
-30 32 -38 43 -47 61 -96 119 -102 122 -5 2 -8 8 -8 13 0 5 -8 17 -17 27 -10
10 -31 36 -48 57 -16 21 -45 57 -63 79 -18 23 -39 48 -45 56 -7 8 -30 37 -52
65 -22 27 -43 54 -48 60 -4 5 -17 21 -28 35 -11 14 -30 38 -42 53 -12 15 -30
38 -41 50 -10 12 -39 49 -64 82 -26 33 -55 69 -65 80 -10 11 -37 45 -60 75
-23 30 -44 57 -47 60 -3 3 -35 41 -70 85 -35 44 -68 85 -72 90 -5 6 -49 62
-100 125 -50 63 -94 117 -98 120 -3 3 -17 21 -30 40 -14 19 -33 44 -43 55 -10
11 -37 45 -60 75 -23 30 -44 57 -47 60 -4 4 -62 77 -93 115 -4 6 -15 20 -25
31 -9 12 -28 36 -42 54 -14 18 -30 38 -35 44 -9 10 -50 61 -165 206 -15 19
-56 70 -91 113 -35 44 -68 86 -74 95 -5 9 -15 21 -21 27 -6 5 -56 66 -110 135
-55 69 -103 130 -109 136 -5 6 -19 23 -30 39 -11 15 -29 38 -40 50 -11 13 -27
33 -35 45 -8 13 -22 30 -30 39 -9 9 -33 39 -55 66 -22 28 -43 52 -47 53 -5 2
-8 8 -8 14 0 5 -6 15 -12 22 -7 7 -24 28 -38 47 -14 19 -37 46 -52 61 -14 16
-23 28 -20 28 4 0 3 4 -3 8 -5 4 -39 45 -74 92 -83 109 -139 166 -183 184 -26
11 -109 17 -344 22 -328 7 -447 11 -451 14 -8 5 -71 2 -81 -4 -7 -4 -12 -3
-12 1 0 5 -40 8 -90 8 -49 0 -90 4 -90 9 0 5 -6 3 -13 -3 -8 -6 -17 -8 -20 -5
-13 13 -255 10 -299 -4z"/>
<path d="M9197 11398 c4 -7 8 -20 10 -28 1 -8 5 -35 9 -60 10 -63 13 -88 18
-140 2 -25 5 -45 6 -45 3 0 9 -58 12 -132 2 -40 7 -73 11 -73 5 0 6 -4 3 -9
-3 -4 -8 -64 -11 -132 -3 -68 -7 -137 -9 -154 -12 -80 -16 -99 -32 -152 -9
-32 -18 -62 -20 -68 -1 -5 -7 -23 -14 -40 -6 -16 -11 -31 -10 -33 4 -10 -123
-224 -155 -258 -5 -7 -21 -26 -35 -44 -33 -42 -158 -166 -211 -210 -23 -19
-47 -40 -53 -45 -6 -6 -27 -22 -46 -35 -19 -13 -37 -27 -40 -30 -13 -15 -140
-100 -149 -100 -6 0 -11 -4 -11 -8 0 -15 -191 -129 -281 -169 -46 -21 -87 -42
-90 -46 -3 -5 -10 -9 -15 -9 -5 0 -19 -4 -32 -9 -13 -5 -28 -9 -33 -9 -5 0 -9
-5 -9 -11 0 -5 -4 -8 -9 -4 -5 3 -12 1 -16 -5 -4 -6 -11 -8 -16 -5 -5 4 -9 2
-9 -2 0 -8 -63 -36 -82 -38 -4 0 -13 -6 -19 -12 -7 -7 -19 -13 -26 -13 -8 0
-28 -8 -46 -17 -18 -9 -35 -17 -39 -18 -3 0 -10 -3 -14 -7 -4 -5 -16 -8 -26
-8 -10 0 -18 -5 -18 -10 0 -6 -3 -9 -7 -8 -5 1 -19 -4 -33 -10 -30 -12 -127
-56 -190 -84 -24 -11 -49 -21 -55 -23 -5 -1 -37 -14 -70 -30 -57 -26 -87 -38
-110 -46 -5 -2 -41 -18 -80 -37 -38 -19 -74 -35 -80 -37 -5 -1 -28 -10 -50
-20 -22 -10 -43 -18 -47 -17 -5 1 -8 -3 -8 -8 0 -6 -7 -10 -15 -10 -8 0 -23
-4 -33 -10 -36 -20 -117 -54 -124 -52 -5 1 -8 -3 -8 -8 0 -6 -8 -10 -18 -10
-10 0 -22 -4 -28 -9 -5 -5 -45 -24 -89 -44 -224 -97 -865 -412 -877 -431 -4
-6 -8 -8 -8 -4 0 6 -158 -79 -210 -113 -8 -5 -28 -16 -45 -24 -16 -8 -50 -28
-75 -45 -25 -16 -51 -30 -57 -30 -7 0 -13 -4 -13 -10 0 -5 -5 -10 -11 -10 -5
0 -37 -18 -69 -40 -32 -22 -62 -40 -65 -40 -3 0 -11 -5 -18 -10 -7 -6 -46 -33
-87 -60 -182 -121 -385 -270 -549 -405 -47 -38 -146 -140 -176 -180 -16 -22
-32 -42 -35 -45 -18 -18 -99 -179 -105 -210 -2 -8 -8 -26 -13 -40 -5 -14 -10
-28 -11 -32 0 -5 -1 -9 -2 -10 -18 -59 -23 -122 -23 -258 1 -136 4 -178 19
-240 4 -14 8 -38 11 -55 8 -45 60 -195 92 -266 l28 -62 1 94 c0 52 3 117 7
144 4 28 8 61 10 75 2 14 11 52 21 85 9 33 18 65 20 70 9 42 96 215 107 215 4
0 8 6 8 13 0 7 8 22 18 33 10 10 25 29 33 41 19 27 127 143 133 143 3 0 20 14
38 30 35 32 139 104 198 137 74 41 282 155 362 198 148 80 1073 540 1081 537
4 -1 7 3 7 8 0 6 4 10 10 10 15 0 124 53 132 65 4 5 8 7 8 3 0 -3 44 16 98 43
53 27 102 49 109 49 6 0 13 4 15 9 2 5 10 11 18 13 8 2 17 5 20 8 5 5 261 133
270 135 3 1 50 23 105 49 224 108 478 229 485 231 3 0 49 22 104 48 54 26 102
47 107 47 5 0 9 5 9 10 0 6 3 9 8 8 4 -1 34 11 67 27 33 16 62 29 65 30 3 0
64 29 135 65 72 35 133 63 138 62 4 -1 7 2 7 8 0 6 3 9 8 8 7 -2 108 48 307
152 61 32 135 71 165 86 30 16 57 31 60 34 3 3 14 10 25 16 103 56 144 80 167
95 14 11 31 19 37 19 6 0 11 5 11 10 0 6 4 10 10 10 10 0 112 60 120 71 3 3
15 9 28 13 12 4 22 12 22 17 0 5 7 9 15 9 8 0 15 5 15 10 0 6 5 10 10 10 6 0
16 4 23 10 7 5 46 36 87 69 127 100 241 228 292 331 13 25 26 47 31 48 4 2 7
12 7 21 0 10 3 21 8 25 4 4 7 11 8 14 0 4 8 31 17 61 39 125 42 300 8 444 -5
20 -7 37 -4 37 3 0 1 6 -5 13 -6 6 -11 15 -11 19 -6 39 -15 69 -22 74 -5 3 -9
12 -9 21 0 26 -107 238 -167 331 -56 87 -160 229 -196 267 -10 11 -37 44 -60
74 -23 30 -52 65 -64 77 -13 13 -23 28 -23 34 0 5 -7 10 -16 10 -10 0 -12 -5
-7 -12z"/>
<path d="M8713 8699 c-29 -15 -53 -25 -53 -21 0 4 -4 3 -8 -3 -4 -5 -54 -32
-112 -60 -58 -27 -112 -55 -121 -62 -8 -7 -20 -13 -25 -13 -5 0 -30 -11 -57
-25 -26 -14 -47 -22 -47 -18 0 5 -4 3 -8 -3 -4 -6 -55 -34 -114 -63 -60 -30
-108 -59 -108 -66 0 -7 14 -43 32 -81 17 -38 32 -71 33 -74 6 -20 145 -353
155 -372 6 -10 10 -25 10 -33 0 -8 5 -15 10 -15 6 0 10 -7 10 -15 0 -8 13 -42
29 -74 16 -33 26 -62 23 -65 -3 -4 -1 -6 5 -6 5 0 10 -6 10 -12 0 -7 20 -53
44 -103 24 -49 44 -92 45 -95 0 -3 15 -34 31 -70 40 -84 61 -156 59 -202 0
-20 2 -34 7 -31 16 10 -31 -96 -54 -121 -28 -29 -117 -79 -129 -71 -5 3 -10 1
-12 -4 -1 -6 -16 -12 -33 -15 -16 -2 -30 -5 -30 -6 0 -1 -26 -6 -75 -13 -8 -2
-19 -5 -25 -8 -5 -3 -17 -5 -25 -4 -8 1 -26 -3 -40 -8 -14 -5 -36 -11 -50 -13
-32 -5 -65 -12 -65 -14 0 -2 -26 -8 -65 -16 -19 -3 -42 -9 -50 -14 -8 -4 -40
-13 -70 -20 -30 -6 -70 -16 -89 -22 l-34 -11 34 -14 c19 -8 42 -16 52 -18 10
-2 26 -6 35 -9 9 -3 28 -7 42 -10 14 -3 36 -7 50 -10 44 -10 177 -28 213 -29
15 0 27 -3 27 -6 0 -3 28 -6 63 -7 34 -1 121 -4 192 -9 298 -18 933 -8 1240
20 56 5 86 8 210 22 28 3 62 6 78 7 15 0 27 3 27 6 0 3 17 6 38 8 46 4 87 10
87 12 0 2 16 5 60 14 56 11 70 14 135 35 36 11 83 32 104 45 l40 24 -45 0
c-59 0 -188 10 -219 18 -14 3 -38 8 -55 11 -41 7 -48 9 -65 16 -8 4 -25 8 -37
10 -12 2 -26 6 -29 10 -4 4 -14 7 -21 7 -14 0 -180 77 -198 92 -5 5 -31 23
-57 41 -49 34 -134 113 -178 164 -52 60 -90 112 -90 122 0 5 -3 11 -7 13 -19
8 -153 261 -203 383 -4 11 -29 71 -54 132 -25 62 -58 139 -73 170 -15 32 -26
61 -25 66 1 4 -2 7 -8 7 -5 0 -10 4 -10 10 0 9 -127 268 -195 400 -16 30 -29
57 -30 60 -1 3 -19 39 -40 81 l-40 76 -52 -28z"/>
</g>
</svg>
