<?xml version="1.0" encoding="utf-8"?>
<!-- Generator: Adobe Illustrator 25.4.1, SVG Export Plug-In . SVG Version: 6.00 Build 0)  -->
<svg version="1.1" id="Layer_1" xmlns="http://www.w3.org/2000/svg" xmlns:xlink="http://www.w3.org/1999/xlink" x="0px" y="0px"
	 viewBox="0 0 131.7 75.2" style="enable-background:new 0 0 131.7 75.2;" xml:space="preserve">
<style type="text/css">
	.st0{fill:#FFFFFF;}
	.st1{fill:#040505;}
	.st2{fill:none;stroke:#FFFFFF;stroke-width:0.952;stroke-miterlimit:10;}
	.st3{fill-rule:evenodd;clip-rule:evenodd;fill:#C99D66;}
	.st4{fill-rule:evenodd;clip-rule:evenodd;fill:#FFFFFF;}
</style>
<g>
	<path class="st0" d="M56.2,53.8L56.2,53.8c0.3-1,1.3-4.1,1.7-5.5c0.1-0.4,0.1-0.5,0.1-0.7c0-0.2-0.1-0.3-0.6-0.3
		c-0.1,0-0.1,0-0.1-0.1c0-0.1,0.1-0.1,0.2-0.1c0.5,0,1,0,1.1,0c0.1,0,0.5,0,0.9,0c0.1,0,0.2,0,0.2,0.1c0,0.1,0,0.1-0.1,0.1
		c0,0-0.2,0-0.4,0.1c-0.3,0.1-0.5,0.6-0.7,1.2c-0.5,1.4-1.6,4.8-2,6c-0.3,0.8-0.3,0.9-0.5,0.9c-0.1,0-0.2-0.1-0.3-0.6l-2.1-6h0
		c-0.4,1-1.9,5-2.2,6c-0.2,0.5-0.2,0.6-0.4,0.6c-0.1,0-0.2-0.1-0.4-0.9l-1.9-6.4c-0.2-0.6-0.3-0.7-0.6-0.8c-0.1-0.1-0.4-0.1-0.5-0.1
		c-0.1,0-0.1,0-0.1-0.1c0-0.1,0.1-0.1,0.2-0.1c0.6,0,1.2,0,1.3,0c0.1,0,0.6,0,1.1,0c0.2,0,0.2,0,0.2,0.1c0,0.1-0.1,0.1-0.1,0.1
		c-0.1,0-0.3,0-0.4,0.1c-0.1,0-0.1,0.1-0.1,0.3s0.1,0.5,0.2,1c0.2,0.7,1.3,4.6,1.4,5.2h0l2.3-6.1c0.2-0.4,0.2-0.5,0.3-0.5
		c0.1,0,0.1,0.1,0.3,0.5L56.2,53.8z"/>
	<path class="st0" d="M62.3,52.1c0,1,0,1.9,0.1,2.3c0,0.3,0.1,0.5,0.4,0.6c0.1,0,0.4,0,0.5,0c0.1,0,0.1,0,0.1,0.1
		c0,0.1-0.1,0.1-0.2,0.1c-0.6,0-1.3,0-1.3,0c-0.1,0-0.7,0-1.1,0c-0.1,0-0.2,0-0.2-0.1c0,0,0-0.1,0.1-0.1c0.1,0,0.2,0,0.3,0
		c0.2,0,0.3-0.3,0.3-0.6c0.1-0.5,0.1-1.3,0.1-2.3v-1.9c0-1.7,0-2,0-2.3c0-0.4-0.1-0.5-0.4-0.6c-0.1,0-0.3,0-0.3,0c0,0-0.1,0-0.1-0.1
		c0-0.1,0.1-0.1,0.2-0.1c0.4,0,1,0,1.1,0c0.1,0,0.7,0,1.1,0c0.1,0,0.2,0,0.2,0.1c0,0,0,0.1-0.1,0.1c-0.1,0-0.1,0-0.3,0
		c-0.3,0.1-0.4,0.2-0.4,0.6c0,0.3,0,0.6,0,2.3V52.1z"/>
	<path class="st0" d="M67,52.2c0,1.6,0,2.3,0.2,2.5c0.2,0.2,0.5,0.2,1.3,0.2c0.6,0,1,0,1.3-0.3c0.1-0.2,0.2-0.4,0.3-0.6
		c0-0.1,0-0.1,0.1-0.1c0.1,0,0.1,0,0.1,0.2c0,0.1-0.1,0.8-0.2,1.1c-0.1,0.2-0.1,0.3-0.7,0.3c-0.8,0-1.3,0-1.8,0c-0.5,0-0.8,0-1.1,0
		c0,0-0.2,0-0.4,0c-0.2,0-0.5,0-0.6,0c-0.1,0-0.2,0-0.2-0.1c0,0,0-0.1,0.1-0.1c0.1,0,0.2,0,0.3,0c0.2,0,0.3-0.3,0.3-0.6
		c0.1-0.5,0.1-1.3,0.1-2.3v-1.9c0-1.7,0-2,0-2.3c0-0.4-0.1-0.5-0.5-0.6c-0.1,0-0.3,0-0.4,0c0,0-0.1,0-0.1-0.1c0-0.1,0.1-0.1,0.2-0.1
		c0.5,0,1.2,0,1.2,0c0.1,0,0.8,0,1.2,0c0.1,0,0.2,0,0.2,0.1c0,0,0,0.1-0.1,0.1c-0.1,0-0.2,0-0.4,0c-0.3,0.1-0.4,0.2-0.4,0.6
		c0,0.3,0,0.6,0,2.3V52.2z"/>
	<path class="st0" d="M73.4,52.2c0,1.6,0,2.3,0.2,2.5c0.2,0.2,0.5,0.2,1.3,0.2c0.6,0,1,0,1.3-0.3c0.1-0.2,0.2-0.4,0.3-0.6
		c0-0.1,0-0.1,0.1-0.1c0.1,0,0.1,0,0.1,0.2c0,0.1-0.1,0.8-0.2,1.1c-0.1,0.2-0.1,0.3-0.7,0.3c-0.8,0-1.3,0-1.8,0c-0.5,0-0.8,0-1.1,0
		c0,0-0.2,0-0.4,0c-0.2,0-0.5,0-0.6,0c-0.1,0-0.2,0-0.2-0.1c0,0,0-0.1,0.1-0.1c0.1,0,0.2,0,0.3,0c0.2,0,0.3-0.3,0.3-0.6
		c0.1-0.5,0.1-1.3,0.1-2.3v-1.9c0-1.7,0-2,0-2.3c0-0.4-0.1-0.5-0.5-0.6c-0.1,0-0.3,0-0.4,0c0,0-0.1,0-0.1-0.1c0-0.1,0.1-0.1,0.2-0.1
		c0.5,0,1.2,0,1.2,0c0.1,0,0.8,0,1.2,0c0.1,0,0.2,0,0.2,0.1c0,0,0,0.1-0.1,0.1c-0.1,0-0.2,0-0.4,0c-0.3,0.1-0.4,0.2-0.4,0.6
		c0,0.3,0,0.6,0,2.3V52.2z"/>
	<path class="st0" d="M80.5,47.4c0.1-0.4,0.2-0.4,0.2-0.4c0.1,0,0.1,0.1,0.2,0.4c0.2,0.4,1.9,4.8,2.5,6.5c0.4,1,0.7,1.1,0.9,1.2
		c0.2,0.1,0.3,0.1,0.4,0.1c0.1,0,0.1,0,0.1,0.1c0,0.1-0.1,0.1-0.2,0.1c-0.2,0-0.9,0-1.7,0c-0.2,0-0.3,0-0.3-0.1c0,0,0-0.1,0.1-0.1
		c0.1,0,0.1-0.1,0.1-0.3l-1-2.6c0,0,0-0.1-0.1-0.1h-2.3c-0.1,0-0.1,0-0.1,0.1l-0.6,1.9c-0.1,0.3-0.1,0.5-0.1,0.7
		c0,0.2,0.2,0.3,0.4,0.3h0.1c0.1,0,0.1,0,0.1,0.1c0,0.1-0.1,0.1-0.2,0.1c-0.3,0-0.7,0-0.8,0c-0.1,0-0.7,0-1.2,0
		c-0.1,0-0.2,0-0.2-0.1c0,0,0-0.1,0.1-0.1c0.1,0,0.2,0,0.3,0c0.5-0.1,0.7-0.5,0.9-1L80.5,47.4z M81.6,51.7
		C81.7,51.7,81.7,51.7,81.6,51.7l-1-3c-0.1-0.2-0.1-0.2-0.2,0l-0.9,2.9c0,0.1,0,0.1,0,0.1H81.6z"/>
	<line class="st1" x1="0" y1="51.4" x2="41.9" y2="51.4"/>
	<line class="st2" x1="0" y1="51.4" x2="41.9" y2="51.4"/>
	<line class="st1" x1="89.8" y1="51.4" x2="131.7" y2="51.4"/>
	<line class="st2" x1="89.8" y1="51.4" x2="131.7" y2="51.4"/>
	<g>
		<path class="st0" d="M7.2,23.3V38c0,0.7,0.2,1.2,0.5,1.5C8,39.8,8.6,40,9.6,40h4.6c0.1,0,0.4-0.1,0.8-0.3c0.4-0.2,0.7-0.4,1-0.6
			c0.7-0.6,1.2-1.3,1.6-2.2c0.2-0.6,0.5-0.9,0.7-0.9c0.3,0,0.4,0.2,0.4,0.6c0,0,0,0.1,0,0.1v0.1c-0.5,1.8-0.8,3.1-0.8,4
			c0,0.4-0.2,0.5-0.4,0.5c-1.5,0-3.4,0-5.8-0.1c-2.4-0.1-4-0.1-5-0.1l-4.2,0.2c-0.6,0-0.9-0.1-0.9-0.4c0-0.2,0.2-0.4,0.7-0.5
			c0.9-0.2,1.5-0.4,1.9-0.7c0.4-0.3,0.6-0.8,0.6-1.5V23.5c0-0.7-0.1-1.2-0.3-1.4c-0.2-0.2-0.8-0.4-1.6-0.5c-0.7-0.1-1-0.3-1-0.6
			c0-0.2,0.3-0.3,0.9-0.3c0.6,0,1.2,0,1.9,0c0.7,0,1.2,0,1.6,0c0.5,0,1.1,0,1.9,0c0.8,0,1.4,0,2,0c0.6,0,0.9,0.1,0.9,0.3
			c0,0.3-0.3,0.5-1,0.6c-0.5,0.1-0.9,0.2-1.1,0.2C8.6,21.9,8.3,22,8,22.1c-0.3,0.1-0.5,0.3-0.6,0.5C7.3,22.8,7.2,23,7.2,23.3z"/>
	</g>
	<path class="st3" d="M38.4,23.1c0.4,0.5,0.8,1,1.2,1.5c1.7,2.5,1.6,4.6-0.9,6.2c-2.8,1.8-5.9,3-8.9,4.5c-2.6,1.3-5.2,2.5-7.7,3.9
		c-1.5,0.8-2.4,2.2-2.3,4.1c-0.9-2-0.8-4,0.7-5.3c1.6-1.4,3.5-2.5,5.4-3.5c2.8-1.4,5.8-2.6,8.7-3.9c0.3-0.2,0.7-0.4,1-0.6
		C38.4,28.2,39,26.7,38.4,23.1"/>
	<path class="st4" d="M34.8,29.5c-0.9,0.5-1.8,1-2.8,1.5c-1.2-2.4-2.2-4.7-3.5-7.2C28,25,27.5,26,27,27c-0.9,2-1.7,3.9-2.7,5.9
		c-0.2,0.5-0.6,1.8-0.6,1.8s-1.5,0.3-2,0.8c0.6-1.2,1.1-2.5,1.7-3.7c1.7-3.7,3.4-7.3,5.1-11c0.2-0.4,0.7-0.9,1-0.9
		c0.3,0,0.8,0.5,1,0.9C32.1,23.5,33.4,26.5,34.8,29.5"/>
	<path class="st4" d="M43.1,40.7c-1,0.9-9.1,1-10.4,0.3c0.8-0.2,1.4-0.4,2.1-0.5c1.1-0.2,1.5-0.7,0.9-1.8c-0.6-1.2-1.1-2.5-1.7-3.9
		c0.9-0.4,1.8-0.9,2.7-1.3c0.6,1.3,1.2,2.4,1.7,3.6C39.2,39.1,40.3,40.7,43.1,40.7"/>
	<path class="st0" d="M49,41c-0.5,0-1.2,0-2,0.1c-0.8,0.1-1.5,0.1-2.1,0.1c-0.6,0-0.9-0.1-0.9-0.3c0-0.3,0.3-0.4,1-0.6
		c0.8-0.1,1.4-0.4,1.8-0.8c0.4-0.4,0.6-0.9,0.6-1.6V23.9c0-0.8-0.2-1.3-0.5-1.7c-0.3-0.4-0.9-0.6-1.6-0.6c-0.7-0.1-1-0.3-1-0.6
		c0-0.2,0.3-0.3,0.9-0.3c0.6,0,1.2,0,1.8,0c0.6,0,1.1,0,1.5,0c0.3,0,0.8,0,1.5-0.1c0.7-0.1,1.3-0.1,2-0.1c2.4,0,4.1,0.4,5.2,1.1
		c1.1,0.7,1.7,1.9,1.7,3.6c0,1.3-0.4,2.3-1.1,3c-0.6,0.6-1.3,1-2.1,1.3c-0.1,0-0.1,0.1-0.1,0.2c0,0.1,0,0.1,0.1,0.2
		c0.6,0.2,1.1,0.4,1.5,0.6c0.4,0.2,0.8,0.5,1.4,0.9c0.5,0.4,0.9,0.9,1.2,1.5c0.3,0.6,0.4,1.4,0.4,2.2c0,0.8-0.1,1.5-0.3,2.1
		c-0.2,0.6-0.5,1.1-0.9,1.5c-0.4,0.4-0.7,0.7-1,0.9c-0.3,0.2-0.6,0.4-1.1,0.6c-1.4,0.7-3.1,1.1-5,1.1c-0.1,0-0.5,0-1.2-0.1
		C50,41.1,49.5,41,49,41 M51.3,29.5c1.3,0,2.5-0.3,3.5-0.9c0.3-0.2,0.7-0.5,1-1c0.3-0.5,0.5-1.1,0.5-1.9c0-1.1-0.3-2.1-0.9-2.9
		c-0.6-0.8-1.7-1.2-3.3-1.2c-0.8,0-1.4,0.1-1.6,0.3c-0.3,0.2-0.4,0.6-0.4,1.1v5.4C49.9,29.1,50.4,29.5,51.3,29.5 M52.4,39.9
		c1.2,0,2.4-0.5,3.4-1.4c1-0.9,1.5-2,1.5-3.4c0-1.8-0.8-3.2-2.3-4c-0.9-0.5-2-0.8-3.3-0.8c-0.6,0-1.1,0.1-1.3,0.4
		c-0.3,0.2-0.4,0.5-0.4,0.8v6.2c0,0.8,0.2,1.4,0.6,1.7C50.9,39.7,51.5,39.9,52.4,39.9"/>
	<path class="st0" d="M68,37.9c0,0.8,0.2,1.3,0.5,1.6c0.3,0.3,0.8,0.5,1.6,0.5h3.3c1.1,0,1.9-0.2,2.4-0.6c0.4-0.3,0.8-1,1.3-2
		c0.1-0.2,0.3-0.3,0.4-0.3c0.3,0,0.4,0.2,0.4,0.3c0,0.8-0.2,1.9-0.5,3.2c-0.1,0.4-0.2,0.5-0.4,0.5c-1.4,0-3.2,0-5.4-0.1
		C69.3,41,67.7,41,66.7,41c-0.4,0-1,0-1.7,0.1c-0.7,0.1-1.3,0.1-1.9,0.1c-0.6,0-0.9-0.1-0.9-0.3c0-0.2,0.3-0.4,1-0.6
		c0.8-0.1,1.4-0.4,1.8-0.7c0.4-0.3,0.5-0.9,0.5-1.6V23.9c0-0.7-0.2-1.3-0.5-1.6c-0.3-0.3-0.8-0.6-1.6-0.7c-0.7-0.1-1-0.3-1-0.6
		c0-0.2,0.3-0.3,0.9-0.3c0.8,0,1.7,0,2.8,0c1.1,0,2,0,2.7,0c0.8,0,1.8,0,2.9,0c1.1,0,2,0,2.8,0c0.8,0,1.2,0,1.2,0
		c0.4,0,0.5,0.1,0.6,0.3c0.3,1.7,0.5,2.8,0.5,3.2c0,0.3-0.1,0.5-0.4,0.5c-0.2,0-0.3-0.1-0.3-0.3c-0.3-1-0.5-1.6-0.7-1.7
		c-0.5-0.6-1.2-0.8-2.1-0.8h-4.1c-0.2,0-0.4,0.1-0.7,0.3c-0.3,0.2-0.4,0.4-0.4,0.7v6.6c0,0.2,0.1,0.3,0.2,0.5
		c0.1,0.1,0.2,0.2,0.4,0.2h3c0.9,0,1.6-0.4,1.9-1.2c0-0.1,0.1-0.2,0.3-0.3c0.1-0.1,0.2-0.2,0.3-0.2c0.1,0,0.2,0,0.3,0.1
		c0.1,0.1,0.1,0.2,0.1,0.4c0,0.1,0,0.3,0,0.8c0,0.4,0,0.7,0,0.9c0,0.2,0,0.6,0,1.2c0,0.6,0,0.9,0,0.9c0,0.4-0.1,0.5-0.3,0.5
		c-0.3,0-0.6-0.2-0.7-0.7C73.1,31.5,72.7,31,72,31h-2.9c-0.4,0-0.7,0.1-0.8,0.2c-0.2,0.1-0.2,0.3-0.2,0.7V37.9z"/>
	<path class="st0" d="M84.8,23.3V38c0,0.7,0.2,1.2,0.5,1.5c0.3,0.3,1,0.4,1.9,0.4h4.6c0.1,0,0.4-0.1,0.8-0.2c0.4-0.2,0.7-0.4,1-0.6
		c0.7-0.6,1.2-1.3,1.6-2.2c0.2-0.6,0.5-0.9,0.7-0.9c0.3,0,0.4,0.2,0.4,0.6c0,0,0,0.1,0,0.1v0.1c-0.5,1.8-0.8,3.1-0.8,4
		c0,0.4-0.2,0.5-0.4,0.5c-1.5,0-3.4,0-5.7-0.1c-2.4-0.1-4-0.1-5-0.1l-4.2,0.2c-0.6,0-0.9-0.1-0.9-0.4c0-0.2,0.2-0.4,0.7-0.5
		c0.9-0.2,1.5-0.4,1.9-0.8c0.4-0.3,0.6-0.8,0.6-1.5V23.5c0-0.7-0.1-1.2-0.3-1.4c-0.2-0.2-0.8-0.4-1.6-0.5c-0.7-0.1-1-0.3-1-0.6
		c0-0.2,0.3-0.3,0.9-0.3c0.6,0,1.2,0,1.9,0c0.7,0,1.2,0,1.6,0c0.5,0,1.1,0,1.9,0c0.8,0,1.4,0,2,0c0.6,0,0.9,0.1,0.9,0.3
		c0,0.3-0.3,0.5-1,0.6c-0.5,0.1-0.9,0.2-1.1,0.2c-0.3,0.1-0.5,0.2-0.8,0.3c-0.3,0.1-0.5,0.3-0.6,0.5C84.8,22.8,84.8,23,84.8,23.3"/>
	<path class="st0" d="M103,23.3V38c0,0.7,0.2,1.2,0.5,1.5c0.3,0.3,1,0.4,1.9,0.4h4.6c0.1,0,0.4-0.1,0.8-0.2c0.4-0.2,0.7-0.4,1-0.6
		c0.7-0.6,1.2-1.3,1.6-2.2c0.2-0.6,0.5-0.9,0.7-0.9c0.3,0,0.4,0.2,0.4,0.6c0,0,0,0.1,0,0.1v0.1c-0.5,1.8-0.8,3.1-0.8,4
		c0,0.4-0.2,0.5-0.4,0.5c-1.5,0-3.4,0-5.8-0.1c-2.4-0.1-4-0.1-5-0.1l-4.2,0.2c-0.6,0-0.9-0.1-0.9-0.4c0-0.2,0.2-0.4,0.7-0.5
		c0.9-0.2,1.5-0.4,1.9-0.8c0.4-0.3,0.6-0.8,0.6-1.5V23.5c0-0.7-0.1-1.2-0.3-1.4c-0.2-0.2-0.8-0.4-1.6-0.5c-0.7-0.1-1-0.3-1-0.6
		c0-0.2,0.3-0.3,0.9-0.3c0.6,0,1.2,0,1.9,0c0.7,0,1.2,0,1.6,0c0.5,0,1.1,0,1.9,0c0.8,0,1.4,0,2,0c0.6,0,0.9,0.1,0.9,0.3
		c0,0.3-0.3,0.5-1,0.6c-0.5,0.1-0.9,0.2-1.1,0.2c-0.3,0.1-0.5,0.2-0.8,0.3c-0.3,0.1-0.5,0.3-0.6,0.5C103.1,22.8,103,23,103,23.3"/>
	<path class="st0" d="M121.3,37.9c0,0.8,0.2,1.3,0.5,1.6c0.3,0.3,0.8,0.5,1.6,0.5h3.3c1.1,0,1.9-0.2,2.4-0.6c0.4-0.3,0.8-1,1.3-2
		c0.1-0.2,0.3-0.3,0.4-0.3c0.3,0,0.4,0.2,0.4,0.3c0,0.8-0.2,1.9-0.5,3.2c-0.1,0.4-0.2,0.5-0.4,0.5c-1.4,0-3.2,0-5.4-0.1
		c-2.2-0.1-3.8-0.1-4.8-0.1c-0.4,0-1,0-1.7,0.1c-0.7,0.1-1.3,0.1-1.9,0.1c-0.6,0-0.9-0.1-0.9-0.3c0-0.2,0.3-0.4,1-0.6
		c0.8-0.1,1.4-0.4,1.8-0.7c0.4-0.3,0.5-0.9,0.5-1.6V23.9c0-0.7-0.2-1.3-0.5-1.6c-0.3-0.3-0.8-0.6-1.6-0.7c-0.7-0.1-1-0.3-1-0.6
		c0-0.2,0.3-0.3,0.9-0.3c0.8,0,1.7,0,2.8,0c1.1,0,2,0,2.7,0c0.8,0,1.8,0,2.9,0c1.1,0,2,0,2.8,0c0.8,0,1.2,0,1.2,0
		c0.4,0,0.5,0.1,0.6,0.3c0.3,1.7,0.5,2.8,0.5,3.2c0,0.3-0.1,0.5-0.4,0.5c-0.2,0-0.3-0.1-0.3-0.3c-0.3-1-0.5-1.6-0.7-1.7
		c-0.5-0.6-1.2-0.8-2.1-0.8h-4.1c-0.2,0-0.4,0.1-0.7,0.3c-0.3,0.2-0.4,0.4-0.4,0.7v6.6c0,0.2,0.1,0.3,0.2,0.5
		c0.1,0.1,0.2,0.2,0.4,0.2h3c0.9,0,1.6-0.4,1.9-1.2c0-0.1,0.1-0.2,0.3-0.3c0.1-0.1,0.2-0.2,0.3-0.2c0.1,0,0.2,0,0.3,0.1
		c0.1,0.1,0.1,0.2,0.1,0.4c0,0.1,0,0.3,0,0.8c0,0.4,0,0.7,0,0.9c0,0.2,0,0.6,0,1.2c0,0.6,0,0.9,0,0.9c0,0.4-0.1,0.5-0.3,0.5
		c-0.3,0-0.6-0.2-0.7-0.7c-0.3-0.9-0.8-1.4-1.4-1.4h-2.9c-0.4,0-0.7,0.1-0.8,0.2c-0.2,0.1-0.2,0.3-0.2,0.7V37.9z"/>
</g>
</svg>
